<svg width="13" height="15" xmlns="http://www.w3.org/2000/svg"><g fill="none" fill-rule="evenodd"><path d="M6.54 13.58c-3.03 0-5.5-2.38-5.5-5.3 0-1.45.62-3.38 1.56-4.92C3.73 1.52 5.13.5 6.54.5c1.42 0 2.82 1.02 3.95 2.86.93 1.54 1.54 3.47 1.54 4.92 0 2.92-2.46 5.3-5.5 5.3z" fill="#FFF"/><path d="M8.88 4.9c.66 0 1.23-.34 1.52-.83.14-.23-.56-2.38-1.52-2.38-.95 0-1.73.7-1.73 1.6 0 .88.78 1.6 1.73 1.6zM2.34 6.64c1.02 0 1.85-.77 1.85-1.7 0-.95-.84-1.7-1.86-1.7-.5 1.13-1.6 2.65-1.22 2.97.32.27.75.44 1.22.44zm8.96 4.38c-.34-1.04-1.4-1.8-2.62-1.8-1.5 0-2.73 1.14-2.73 2.53 0 .83.44 1.57 1.12 2.03 1-.16 4.3-2.53 4.22-2.76z" fill="#FF9B6A"/><path d="M11.48 11.27c-7.32 4.83-13.8.17-9.1-8.28-1.4 5.97 2.4 9.9 9.1 8.27z" fill="#A5795B" opacity=".2"/><path d="M6.54 13.58c-3.03 0-5.5-2.38-5.5-5.3 0-1.45.62-3.38 1.56-4.92C3.73 1.52 5.13.5 6.54.5c1.42 0 2.82 1.02 3.95 2.86.93 1.54 1.54 3.47 1.54 4.92 0 2.92-2.46 5.3-5.5 5.3z" stroke="#31323D"/></g></svg>