<svg version="1.1" id="Layer_1" xmlns="http://www.w3.org/2000/svg" x="0" y="0" viewBox="0 0 42 42" xml:space="preserve"><style/><circle cx="21" cy="21" fill-rule="evenodd" clip-rule="evenodd" fill="#f0d5ff" r="21"/><ellipse cx="21" cy="30.8" rx="9" ry="1.8" fill-rule="evenodd" clip-rule="evenodd" fill="#e4c9e2"/><g transform="translate(1.5 4.338)"><linearGradient id="a_00000176732409431332489200000011423808138346372785_" gradientUnits="userSpaceOnUse" x1="-3339.458" y1="51.259" x2="-3339.381" y2="51.678" gradientTransform="matrix(16.281 0 0 14.396 54388.426 -723.124)"><stop offset="0" stop-color="#f1aaef"/><stop offset="1" stop-color="#d970d4"/></linearGradient><path id="a_00000030478855601676743230000008467557065853375928_" d="M20.4 12.3c-.9 1.4-.1 2.6-3.5 3.3-1.5.3-2.7.2-4 1.2-1.8 1.3-2.1 4.5-.3 6.2 4.3 3.7 12.1-.9 13.1-7.9.7-4.7.9-5.4.6-2" fill-rule="evenodd" clip-rule="evenodd" fill="url(#a_00000176732409431332489200000011423808138346372785_)"/></g><path d="M24.4 15.5c-.8 2.2-2.6 4.1-5.4 5.7-3.9 2.3-6.8.2-7.8-.7.5 3.1 5.1 4.6 7.8 3.5 4.1-1.6 7.4-7.5 7.4-10.6 0-2-7.9-1.6-6.6 0 .2.2.2-.1.9 0-.1.9.1 2.2.9 2.5.9.5 1.8.3 2.8-.4z" fill-rule="evenodd" clip-rule="evenodd" fill="#ba58b4" transform="translate(1.5 4.338)"/><path d="M11.8 20.9c.6-3.1 2.6-3.4 4.3-3.8 1.7-.3 2.9-.7 3.7-2.2.5-1 .7-1.6.6-1.6l-.6.6-1.3 1-5.6 1.5-1.5 2.7c-.2 3.3-.1 3.9.4 1.8z" fill-rule="evenodd" clip-rule="evenodd" fill="#ffe9ff" transform="translate(1.5 4.338)"/><path d="M21.7 16.6c-.5 1.2-.3 2.2-3.3 2.9-1.6.4-2.9.3-4.3 1.3-1.9 1.5-2.3 4.9-.3 6.7 4.4 3.9 12.4-.5 13.9-7.7" fill="none" stroke="#31323d" stroke-width="1.5"/><path d="M23.8 16.2s-5.9.8-1.7-2.8c0 0 5.7-2.3 7.2 4.2 0 0-.4 4.5-2.6 1 .1 0-4.5 2.4-2.9-2.4z" fill-rule="evenodd" clip-rule="evenodd" fill="#98e87b"/><path d="M19.9 16.3c-1.3 5.5-2.2-1.2-2.2-1.2-3.2 5.6-2.5-.6-2.5-.6-6.3 1.5-1.2-2-1.2-2" fill="none" stroke="#62bd49" transform="translate(9.2 1.2)"/><g fill="none" stroke="#31323d"><path d="M26.6 14.2c.7-1.5 1.5-1.7 2.3-1.7" stroke-linecap="round"/><path d="M21.9 13.9c3.3-2.4 7.5 0 7.4 4.1 0 4.2-2.7 1.3-3-.4-1.8 2.4-4.1 1.8-2.8-1.4-1.4.8-4.7.6-1.6-2.3z"/></g></svg>