<svg xmlns="http://www.w3.org/2000/svg" width="42" height="42"><g fill="none" fill-rule="evenodd"><ellipse cx="21" cy="20.971" fill="#FADFF4" rx="21" ry="20.971"/><ellipse cx="21" cy="30.75" fill="#EAB5DE" rx="9.5" ry="1.75"/><path fill="#FFA6D8" d="M28.203 17.115l-.742-4.058c-1.562 1.286-2.678 2.128-3.35 2.526a12.66 12.66 0 00-3.417-.46c-4.887 0-8.32 2.547-8.735 5.975-.147-.033-.422 1.162-.32 1.319.272 1.825 1.674 3.655 3.714 4.776l.441 1.894c.1.49.224 1.19.735 1.19h1.077a1.02 1.02 0 001.027-.936l.408-.818a69.47 69.47 0 003.26 0l.47.896c.035.526.072.846.612.846l1.363.013c.512 0 1.336-.37 1.435-.859l.306-1.992c1.431-.757 2.51-1.608 3.146-2.794l.656-.38c.613 0 1.665-.437 1.665-.974.276-.614.406-1.078.389-1.39-.018-.323-.2-.811-.546-1.467 0-.537-.897-.974-1.51-.974-1-1.2-1.695-1.977-2.084-2.333z"/><path fill="#EA60AE" d="M12.623 23.571c1.384 2.123 2.413 3.293 3.087 3.51.471.152.471 2.684.763 3.026.195.228.93.228 2.204 0l.424-1.843c1.928.084 3.027.084 3.298 0 .271-.084.484.53.638 1.843l3.27-.365c.121-.985.33-1.792.625-2.42 1.667-1.203 3.064-3.05 3.064-3.56-2.414 2.357-4.095 3.163-8.996 3.163-3.267 0-6.06-1.118-8.377-3.354z"/><path fill="#FFEAF6" d="M12.443 19.674c3.756-4.64 7.971-4.812 11.702-4.18l3.455-2.427 1.313 4.305c.801 1.847 1.163 2.718 1.086 2.614-.734-1-1.704-1.785-2.965-2.433V14.46a.15.15 0 00-.226-.13c-.709.417-1.106.68-1.193.79-.09.114-.193.536-.307 1.267a.15.15 0 01-.167.125c-2.204-.273-4.102-.325-5.696-.155-2.442.26-5.773 1.937-7.002 3.317z"/><path fill="#31323D" fill-rule="nonzero" d="M31.32 18.823c1.275 0 1.841 1.357 1.841 3.038 0 1.678-.563 3.017-1.841 3.017h-.61c-.769 1.226-1.602 1.888-3.257 2.778l-.387 1.888c-.16.783-.881 1.359-1.693 1.359l-1.422-.005c-.869 0-1.6-.663-1.657-1.52l-.015-.21c-.69.009-1.738.009-2.427 0l-.014.214c-.056.858-.787 1.52-1.657 1.52h-1.073c-.807 0-1.528-.574-1.689-1.357l-.402-1.966c-2.485-1.424-3.736-3.183-3.736-5.958 0-3.493 5.006-7.122 10.018-7.122.314 0 .556-.013.949-.044.198-.016.293-.023.399-.03a6.465 6.465 0 011.168.02c.486-.76 1.37-1.407 2.634-1.967a1.625 1.625 0 012.283 1.486v2.585c.99.74 1.518 1.298 2.026 2.274h.562zm-1.516.891c-.506-1.075-.935-1.526-2.063-2.342l-.259-.187v-3.221a.375.375 0 00-.527-.343c-1.237.548-1.966 1.143-2.217 1.744l-.192.457-.488-.082a5.263 5.263 0 00-1.33-.068c-.097.007-.184.013-.382.03-.423.033-.693.047-1.047.047-4.392 0-8.768 3.172-8.768 5.872 0 2.351 1.052 3.755 3.34 5.004l.255.14.058.283.46 2.246c.04.196.245.359.464.359h1.073c.22 0 .397-.161.41-.355l.096-1.427.617.035c.442.025 3.063.025 3.524 0l.614-.033.043.614.056.806c.013.193.191.355.412.355l1.422.005c.222 0 .426-.163.466-.36l.506-2.466.262-.138c1.783-.937 2.484-1.496 3.205-2.748l.18-.313h1.326c.291 0 .591-.712.591-1.767 0-1.056-.305-1.788-.591-1.788h-1.347l-.169-.359z"/><path fill="#31323D" d="M26.577 18.825a1.007 1.007 0 10.002 2.014 1.007 1.007 0 00-.002-2.014z"/><path fill="#FCDF35" d="M20.53 15.996c1.339 0 2.426-1.105 2.426-2.464 0-1.358-1.088-2.464-2.425-2.464-1.337 0-2.425 1.105-2.425 2.464 0 1.358 1.088 2.464 2.425 2.464z"/><path fill="#FFFEFA" d="M18.645 12.876c.594-1.15 2.124-1.771 3.048-1.313.924.457.765 1.428.765 1.945-.454-1.048-2.147-1.946-3.813-.632z"/><path fill="#31323D" fill-rule="nonzero" d="M20.53 16.62c-1.683 0-3.049-1.387-3.049-3.088 0-1.702 1.365-3.089 3.05-3.089 1.684 0 3.05 1.388 3.05 3.089 0 1.702-1.365 3.089-3.05 3.089zm0-1.25c.991 0 1.801-.822 1.801-1.838 0-1.015-.81-1.839-1.8-1.839s-1.8.823-1.8 1.839c0 1.015.81 1.839 1.8 1.839zM9.483 20.84c0-.35-.106-.61-.137-.69.047.002.033.028.008.08a1.479 1.479 0 00.004 1.238c.079-.19.125-.402.125-.628zm-1.512 0c0-.967.476-1.965 1.367-1.965.893 0 1.395.942 1.395 1.965a2.87 2.87 0 01-.379 1.427c.084.016.17.023.253.02.358-.013.683-.469.683-1.067a.625.625 0 111.25 0c0 1.205-.763 2.275-1.887 2.316a2.485 2.485 0 01-1.244-.292 2.184 2.184 0 01-1.122.321c-1.075 0-1.73-.83-1.878-2.104a.625.625 0 011.242-.144c.082.713.307.998.636.998a.8.8 0 00.105-.007 2.708 2.708 0 01-.421-1.468zm9.821-2.036a.5.5 0 01-.584-.812c1.74-1.252 4.812-1.392 6.85-.008a.5.5 0 01-.561.828c-1.68-1.141-4.296-1.022-5.705-.008z"/></g></svg>